{"title":"Chelsea S01E13 720p WEBRip x264-TheRival","uid":14843781,"size":514384481,"categoryP":"video","categoryS":"hd___tv_shows","magnet":"?xt=urn:btih:515ed6f9551f208bf223b41d450cd1c8f76fa5e5&amp;dn=Chelsea+S01E13+720p+WEBRip+x264-TheRival&amp;tr=udp%3A%2F%2Ftracker.leechers-paradise.org%3A6969&amp;tr=udp%3A%2F%2Fzer0day.ch%3A1337&amp;tr=udp%3A%2F%2Fopen.demonii.com%3A1337&amp;tr=udp%3A%2F%2Ftracker.coppersurfer.tk%3A6969&amp;tr=udp%3A%2F%2Fexodus.desync.com%3A6969","seeders":0,"leechers":1,"uploader":"TheRival","files":3,"time":1465405281,"description":"http://www.tvmaze.com/shows/16628/chelsea\r\n\r\nScreens: \nhttp://extraimago.com/image/aB8F \nhttp://extraimago.com/image/aB8H\r\n\r\nVideo\r\nID : 1\r\nFormat : AVC\r\nFormat/Info : Advanced Video Codec\r\nFormat profile :   \r\nFormat settings, CABAC : Yes\r\nFormat settings, ReFrames : 2 frames\r\nFormat settings, GOP : M=1, N=24\r\nCodec ID : avc1\r\nCodec ID/Info : Advanced Video Coding\r\nDuration : 31mn 13s\r\nBit rate mode : Variable\r\nBit rate : 2 064 Kbps\r\nMaximum bit rate : 3 163 Kbps\r\nWidth : 1 280 pixels\r\nHeight : 720 pixels\r\nDisplay aspect ratio : 16:9\r\nFrame rate mode : Constant\r\nFrame rate : 29.970 (30000/1001) fps\r\nColor space : YUV\r\nChroma subsampling : 4:2:0\r\nBit depth : 8 bits\r\nScan type : Progressive\r\nBits/(Pixel*Frame) : 0.075\r\nStream size : 461 MiB (94%)\r\nEncoded date : UTC 2016-06-08 14:22:18\r\nTagged date : UTC 2016-06-08 14:28:39\r\nColor primaries : BT.709\r\nTransfer characteristics : BT.709\r\nMatrix coefficients : BT.709\r\n\r\nAudio\r\nID : 2\r\nFormat : AAC\r\nFormat/Info : Advanced Audio Codec\r\nFormat profile : LC\r\nCodec ID : 40\r\nDuration : 31mn 13s\r\nBit rate mode : Variable\r\nBit rate : 128 Kbps\r\nMaximum bit rate : 132 Kbps\r\nChannel(s) : 2 channels\r\nChannel positions : Front: L R\r\nSampling rate : 48.0 KHz\r\nFrame rate : 46.875 fps (1024 spf)\r\nCompression mode : Lossy\r\nStream size : 28.6 MiB (6%)\r\nTitle : English (aac 2.0)\r\nLanguage : English\r\nDefault : Yes\r\nAlternate group : 1","torrent":{"xt":"urn:btih:515ed6f9551f208bf223b41d450cd1c8f76fa5e5","amp;dn":"Chelsea+S01E13+720p+WEBRip+x264-TheRival","amp;tr":["udp%3A%2F%2Ftracker.leechers-paradise.org%3A6969","udp%3A%2F%2Fzer0day.ch%3A1337","udp%3A%2F%2Fopen.demonii.com%3A1337","udp%3A%2F%2Ftracker.coppersurfer.tk%3A6969","udp%3A%2F%2Fexodus.desync.com%3A6969"],"infoHash":"515ed6f9551f208bf223b41d450cd1c8f76fa5e5","infoHashBuffer":{"type":"Buffer","data":[81,94,214,249,85,31,32,139,242,35,180,29,69,12,209,200,247,111,165,229]},"announce":[],"urlList":[]}}